<svg width="47" height="35" viewBox="0 0 47 35" fill="none" xmlns="http://www.w3.org/2000/svg">
<path d="M39.8675 2.9312C36.8335 1.54212 33.6304 0.556665 30.3403 0C29.89 0.804856 29.4826 1.63294 29.1198 2.4808C25.6152 1.95268 22.0511 1.95268 18.5465 2.4808C18.1835 1.63303 17.7761 0.804953 17.326 0C14.0338 0.561366 10.8286 1.54916 7.79148 2.93846C1.76201 11.8592 0.127514 20.5583 0.944762 29.134C4.47577 31.7428 8.42798 33.7269 12.6296 35C13.5757 33.7276 14.4128 32.3777 15.1322 30.9646C13.7659 30.4543 12.4471 29.8247 11.1912 29.0831C11.5218 28.8434 11.845 28.5964 12.1574 28.3567C15.8118 30.0752 19.8003 30.9663 23.8386 30.9663C27.8769 30.9663 31.8654 30.0752 35.5198 28.3567C35.8358 28.6146 36.1591 28.8616 36.486 29.0831C35.2276 29.8259 33.9065 30.4567 32.5377 30.9682C33.2562 32.3806 34.0934 33.7294 35.0403 35C39.2455 33.732 43.2008 31.7489 46.7324 29.1376C47.6913 19.1926 45.0943 10.5734 39.8675 2.9312ZM16.1674 23.86C13.89 23.86 12.0085 21.7933 12.0085 19.2507C12.0085 16.7082 13.8246 14.6233 16.1601 14.6233C18.4956 14.6233 20.3626 16.7082 20.3226 19.2507C20.2827 21.7933 18.4883 23.86 16.1674 23.86ZM31.5098 23.86C29.2288 23.86 27.3546 21.7933 27.3546 19.2507C27.3546 16.7082 29.1707 14.6233 31.5098 14.6233C33.849 14.6233 35.7014 16.7082 35.6614 19.2507C35.6215 21.7933 33.8308 23.86 31.5098 23.86Z" fill="white"/>
</svg>
