<svg width="47" height="35" viewBox="0 0 47 35" fill="none" xmlns="http://www.w3.org/2000/svg">
<path d="M3.21185 35H10.5398V17.0176L0.0712891 9.02543V31.8156C0.0712891 33.5639 1.48762 35 3.21185 35Z" fill="white"/>
<path d="M35.6027 35H42.9307C44.6549 35 46.0713 33.5639 46.0713 31.8156V9.02543L35.6027 17.0176" fill="white"/>
<path d="M35.6027 3.21858V17.0176L46.0713 9.08783V4.77955C46.0713 0.845902 41.6375 -1.4019 38.5585 0.97078" fill="white"/>
<path d="M10.5398 17.0176V3.21859L23.1021 12.7717L35.6027 3.21858V17.0176L23.0405 26.5083" fill="white"/>
<path d="M0.0712891 4.77958V9.02543L10.5398 17.0176V3.21859L7.584 0.970805C4.50502 -1.33943 0.0712891 0.908366 0.0712891 4.77958Z" fill="white"/>
</svg>
