<svg width="50" height="35" viewBox="0 0 50 35" fill="none" xmlns="http://www.w3.org/2000/svg">
<path d="M48.7105 5.46536C48.1392 3.31399 46.4561 1.61988 44.3186 1.04492C40.4446 4.76837e-07 24.91 0 24.91 0C24.91 0 9.37542 4.76837e-07 5.50131 1.04492C3.36397 1.61988 1.68057 3.31399 1.10933 5.46536C0.0712585 9.36456 0.0712585 17.5 0.0712585 17.5C0.0712585 17.5 0.0712585 25.6353 1.10933 29.5349C1.68057 31.686 3.36397 33.3801 5.50131 33.9553C9.37542 35 24.91 35 24.91 35C24.91 35 40.4446 35 44.3186 33.9553C46.4561 33.3801 48.1392 31.686 48.7105 29.5349C49.7487 25.6353 49.7487 17.5 49.7487 17.5C49.7487 17.5 49.7487 9.36456 48.7105 5.46536Z" fill="white"/>
<path d="M19.8293 24.8863L32.8132 17.5003L19.8293 10.1136V24.8863Z" fill="black"/>
</svg>
